<!DOCTYPE svg PUBLIC "-//W3C//DTD SVG 1.1//EN" "http://www.w3.org/Graphics/SVG/1.1/DTD/svg11.dtd">
<!-- Uploaded to: SVG Repo, www.svgrepo.com, Transformed by: SVG Repo Mixer Tools -->
<svg version="1.1" id="Layer_1" xmlns="http://www.w3.org/2000/svg" xmlns:xlink="http://www.w3.org/1999/xlink" viewBox="0 0 512 512" xml:space="preserve" width="215px" height="215px" fill="#7c52c8" transform="rotate(270)">
<g id="SVGRepo_bgCarrier" stroke-width="0"/>
<g id="SVGRepo_tracerCarrier" stroke-linecap="round" stroke-linejoin="round"/>
<g id="SVGRepo_iconCarrier"> <polygon style="fill:#7c52c8;" points="13.219,256.001 180.468,126.517 180.468,218.235 331.532,218.235 331.532,126.517 498.781,256.001 331.532,385.484 331.532,293.766 180.468,293.766 180.468,385.484 "/> <polygon style="fill:#7c52c8;" points="180.468,385.484 180.468,293.766 331.532,293.766 331.532,385.484 498.781,256.001 13.219,256.001 "/> <path d="M323.439,401.983V301.858H188.561v100.125L0,256.001l188.561-145.984v100.125h134.878V110.017L512,256.001L323.439,401.983z M172.375,285.674h167.249v83.309l145.936-112.983L339.625,143.017v83.309H172.375v-83.309L26.439,256.001l145.936,112.983V285.674z "/> <g> <rect x="68.787" y="274.876" transform="matrix(-0.7926 -0.6097 0.6097 -0.7926 30.0922 576.173)" style="fill:#FFFFFF;" width="88.489" height="16.185"/> <rect x="354.724" y="220.919" transform="matrix(-0.7926 -0.6097 0.6097 -0.7926 575.5673 653.7889)" style="fill:#FFFFFF;" width="88.489" height="16.185"/> </g> </g>
</svg>